<?xml version="1.0" encoding="UTF-8"?>
<svg id="Layer_1" xmlns="http://www.w3.org/2000/svg" version="1.1" viewBox="0 0 595.3 559.1">
  <!-- Generator: Adobe Illustrator 29.3.1, SVG Export Plug-In . SVG Version: 2.1.0 Build 151)  -->
  <defs>
    <style>
      .st0 {
        fill: #010101;
      }

      .st1 {
        fill: #fff;
      }

      .st2 {
        fill: #c12126;
      }

      .st3 {
        fill: #841a1a;
      }

      .st4 {
        fill: #761113;
      }
    </style>
  </defs>
  <g>
    <path class="st1" d="M176.9,33.3l91.8,36.8,79.5,1.4,31.4,12.1,91.8-44.2,2.6,56.3-15.2,32.2.6,8.1,60.5,17.2-35.8,172.9-172.1-.8-47.5-76.5-34.1-47.5-50.9-36.8c-13.9-7.3-20.6-27-19-48.7l1.2-17.4,1.4-43.3,13.6-21.9h0Z"/>
    <path class="st1" d="M181.4,45.9l93.4,36.6,72-.7,32.2,15.2,85.4-39.2,1.4,35.8-19,35.6,3.1,16.8,56.8,17.2-32.3,151.6-153.9,1.1-41.8-70.2-20.5-29.7c-9.2-14.6-21.7-26.9-36.4-35.8l-26.1-15.7c-13.1-6.9-25.8-23.2-14.2-46.3l-9.6-18,1.8-40.8,7.8-13.3h0Z"/>
    <g>
      <polygon class="st4" points="407.4 242.7 477.1 301.4 500.4 167.1 443.1 149.9 407.4 242.7"/>
      <polygon class="st2" points="403.7 251.3 448.1 258.5 460.1 186.3 448.5 147.7 403.7 251.3"/>
      <polyline class="st2" points="460.6 64.1 448.1 77.1 403 112.6 351.7 194.7 384.5 255.6 404 255.6 444.5 125.1 463 91"/>
      <polyline class="st3" points="374.3 100 338.8 186.4 362.1 236.6 403.7 191.1 396.5 129.1 413.9 112 444.2 83.2 464.2 59.6"/>
      <polyline class="st4" points="347.6 86.4 275.1 140.5 310 181.8 345.7 183.9 386.3 101.5"/>
      <polyline class="st2" points="188.6 53.8 173.2 92.5 252.8 121.5 283.1 162.6 330.7 142.6 355.6 88.9 266 82.1"/>
    </g>
    <path class="st0" d="M451.4,144.4l-1.7-16.3s12.2-22.3,18.1-35.1c.2-12.7-1.2-39.4-1.2-39.4,0,0-32.1,12.4-41.9,17.5-9.7,5.1-36.3,20-41.4,21.4-5.1,1.5-14.9-1.8-14.9-1.8,0,0-13-8.9-21.7-11.1-8.8-2.2-66.7-1.2-74.3-.5-7.6.7-90.1-36-92.2-36.5-2.2-.5-8.8,13.5-9.1,15.7-.2,2.2-3.3,38.7-.6,43.3l6.7,17c.2.6-.3,1.2-.9,1.1l-6.4-1.3c-.5-.1-.9.3-1,.8-1,4.6-.7,23.9,4.2,31.1,14.6,12.9,47.8,28.6,61.3,40.4,5.4,5.4,35.1,40,42,54.8,6.8,14.8,39.6,63.8,42.8,71.3,47,.4,135.7-1.9,156.9,0,0,0,2.4-7.6,33.2-155.7M259.2,198.5c-9.6-9.4-9.3-13.4-20.6-20.6-21-13.8-23-13.4-43.6-25.4-5-2.9-12.1-9.7-12.6-10.7-1.6-3.3-1-8.5,0-11.8l37.8,17.2c1,.5,1.8-.6,1.3-1.6,0,0-1.8-4.8-4.4-8.2-2.6-3.5-12.2-13.7-18.6-15.6-4.3.1-7,3.8-7.9,3.1-.5-.4-2.4-10.5-2.4-10.5l-1.4-7.2c-.8-3.8-1.2-5.2-2.4-12.1-1-2.2,0-7.9,0-7.9.1-.3.4-1.2.9-2.2.3-.7,2.6-.9,3.3-.7l2.5.6c.5-.1,1.4-2.4,1.1-2.8l-5.2-5.4c-.5-.5-1.5-2-1.4-2.7.4-2.3,1.6-7,2.3-10.7.3-1.5,1.9-2.4,3.4-1.8,5.6,2.3,18,7.5,22.7,9.8,6.2,2.9,35.3,16.8,42.6,18.8,7.4,2,22.1,1.3,35.5.3,9.8-.5,44.3,0,48.1,1,3.8,1,26.1,14.3,26.1,14.3,0,0-17.7,46.9-22.9,59-5.2,12.1-13.9,23.5-23.1,26.5,0,0-38.9,12.2-51,13.5-1.8.2-3.5-.4-4.9-1.6l-5.1-4.4h0ZM401.1,239c-.4,1.1-2.2,5.9-3.3,6.5-9.4,4.9-105.2,5.2-105.2,5.2,0,0,1.7,8.9,3.3,10.8,1.7,1.8,100.3-1.6,112.6-4.9,9.9-19.7,35.8-96.6,39.5-101.7,4.8,1.7,46.2,14.6,46.2,14.6-6.6,34.1-28,136.8-28,136.8-14.6,1.5-105.8,1.9-139.3-.6,0,0-22.6-42-28-53.3-5.4-11.3-24.2-39.2-24.2-39.2,0,0,60.2-12.9,64.7-17.2,4.5-4.3,19.5-34.9,24-43.8,4.5-8.8,16.5-45,16.5-45l81-42.9s.3,6.1-1,28.4c0,0-14.5,26.1-14.6,26.2-2.2,4-5,7.6-7.5,11.4-2.2,3.4-4.9,6.6-8.5,8.7-9.6,5.4-19.1-.6-26-7.4,0,0-2.2,3.8-1.2,9.3,0,0,16.6,21.9,17.2,32.1,1.3,24.1-10.1,44.2-18.2,66.2h0Z"/>
    <path class="st0" d="M422.7,133.5s-13-5.4-8.8-21.6c4.3-16.2,41-42.1,41-42.1l-16.9,46.6-15.4,17Z"/>
    <path class="st0" d="M283,105.8l19-5.8c.7-.2,1.4,0,1.9.5l14.2,17.3c1.5,1.6-.1,4.2-2.1,3.4,0,0-13.1-5.3-18.2-7.4-5.1-2-15-4.2-15-4.2-1.8-.7-1.7-3.4.1-3.9h0Z"/>
    <circle class="st0" cx="454.9" cy="174.1" r="5.2"/>
    <circle class="st0" cx="477.1" cy="181.1" r="5.2"/>
    <circle class="st0" cx="325.5" cy="274.4" r="5.2"/>
    <circle class="st0" cx="337" cy="294.9" r="5.2"/>
  </g>
  <path class="st1" d="M218.9,381.4l22.6-7.5s4.9-.5,3.2-5.4c-1.7-4.9-11.1-15.9-17.2-19.5-9-5.3-27.8-8-38.1-7.6-11.9.4-28.3,3.5-36.7,8.4-8.4,4.9-18.4,15.7-21.9,23.7-3.7,8.6-7.4,23-5.2,40.8,2.2,17.8,13.3,30.6,19.9,35.6,7.2,5.5,22.4,11.5,43.1,11.9,19.7.3,38.3-3.8,52.7-14.1l6.9-4.9.2-40.2s.7-7.7-5.4-7.7h-45.5s-6.9-.7-6.9,4.2c0,3.2,0,13.8,0,13.8,0,0-.5,4.7,4.8,4.8,4.1,0,14.9,0,14.9,0,0,0,3.9-.9,3.9,4.1v7.4s-2.2,6.7-13.3,6.9c-11.1.2-23.1-.7-29.3-6.2-6.1-5.4-10.4-17.6-10.3-26.4,0-7.4,1.2-19.2,8.1-27.4,5-5.9,12.8-8.1,18.2-8.4,8.4-.4,18.9,3.2,21.6,7.6,2.7,4.4,3,5.9,5.4,6.4,2.5.5,4.2-.4,4.2-.4h0Z"/>
  <path class="st1" d="M97.1,460.2h-16.4s-6.3.9-6.3-8.3v-53.1c0-7.2,5.7-7.9,5.7-7.9h17c6.8,0,7.4,7.1,7.4,7.1v53.6c0,9.1-7.4,8.5-7.4,8.5h0Z"/>
  <path class="st1" d="M354.2,342.9s7.9.1,7.9,12.4-7.3,12.5-7.3,12.5h-44.3s-6,1.6-6,9.6,6,9.4,6,9.4h39s7.7,1,7.7,12.7-7.1,11.1-7.1,11.1h-39.1s-6.6,2.2-6.6,11.7,6.8,11.1,6.8,11.1h44.1s7.6.5,7.6,13.9-7.6,12.9-7.6,12.9h-77.9s-7.9.3-7.9-8v-100.2s-.3-9.3,7.6-9.3,77.2,0,77.2,0h0Z"/>
  <path class="st1" d="M423.7,344.6h-41.9s-4.4-.5-4.4,4.4v109s.4,3.6,3.4,3.6h22.8s3.9.1,3.9-3.2v-47.6s0-5.1,5.2-5.1,5.2,5,5.2,5l12.5,46.6s.5,3.8,3.8,3.8h21.1s2.8.5,4.4-3.6c1.6-4.1,12.9-48.8,12.9-48.8,0,0,.6-5.5,5.5-5.5s4.7,5.5,4.7,5.5v48.7s.4,4.1,3.6,4.1h22.9s3.6-.4,3.6-4.9v-107.8s0-4.6-3.9-4.6h-42s-2.5.2-4,5c-1.5,4.7-13,48.3-13,48.3,0,0-1.7,5.3-5.3,5.3s-5.3-5.5-5.3-5.5l-11.7-47.7s-.4-5-4.1-5h0Z"/>
  <path class="st1" d="M234.9,249.4l-15.7,2.6c-.9-2.5-1.9-4.8-3.2-7l12.3-10.1c1.6-1.3,1.8-3.7.5-5.3l-5.3-6.4c-1.3-1.6-3.7-1.8-5.3-.5l-12.3,10.1c-2-1.7-4.1-3.2-6.3-4.5l5.6-14.9c.7-1.9-.3-4.1-2.2-4.9l-7.8-2.9c-1.9-.7-4.1.3-4.9,2.2l-5.6,14.9c-2.5-.5-5.1-.7-7.7-.7l-2.6-15.7c-.3-2.1-2.3-3.4-4.3-3.1l-8.2,1.4c-2.1.3-3.4,2.3-3.1,4.3l2.6,15.7c-2.5.9-4.8,1.9-7,3.2l-10.1-12.3c-1.3-1.6-3.7-1.8-5.3-.5l-6.4,5.3c-1.6,1.3-1.8,3.7-.5,5.3l10.1,12.3c-1.7,2-3.2,4.1-4.5,6.3l-14.9-5.6c-1.9-.7-4.1.3-4.9,2.2l-2.9,7.8c-.7,1.9.3,4.1,2.2,4.9l14.9,5.6c-.5,2.5-.7,5.1-.7,7.7l-15.7,2.6c-2.1.3-3.4,2.3-3.1,4.3l1.4,8.2c.3,2.1,2.3,3.5,4.3,3.1l15.7-2.6c.9,2.5,1.9,4.8,3.2,7l-12.3,10.1c-1.6,1.3-1.8,3.7-.5,5.3l5.3,6.5c1.3,1.6,3.7,1.8,5.3.5l12.3-10.1c2,1.7,4.1,3.2,6.3,4.5l-5.6,14.9c-.7,2,.3,4.1,2.2,4.9l7.8,2.9c1.9.7,4.1-.3,4.9-2.2l5.6-14.9c2.5.5,5.1.7,7.7.7l2.6,15.7c.3,2.1,2.3,3.5,4.3,3.1l8.2-1.4c2.1-.3,3.4-2.3,3.1-4.3l-2.6-15.7c2.5-.9,4.8-1.9,7-3.2l10.1,12.3c1.3,1.6,3.7,1.8,5.3.5l6.4-5.3c1.6-1.3,1.8-3.7.5-5.3l-10.1-12.3c1.7-2,3.2-4.1,4.5-6.3l14.9,5.6c1.9.7,4.1-.3,4.9-2.2l2.9-7.8c.7-2-.3-4.1-2.2-4.9l-14.9-5.6c.5-2.5.7-5.1.7-7.7l15.7-2.6c2.1-.3,3.4-2.3,3.1-4.3l-1.4-8.2c-.3-2.1-2.3-3.4-4.3-3.1h0ZM171.5,238.3c15.8-2.6,30.7,8.1,33.3,23.8s-8.1,30.7-23.8,33.3-30.7-8-33.3-23.8,8.1-30.7,23.8-33.3h0Z"/>
  <path class="st1" d="M123.3,316.3l-9.2,2.4c-.7-1.4-1.4-2.8-2.3-4l6.8-6.7c.9-.9.9-2.3,0-3.2l-3.5-3.5c-.9-.9-2.3-.9-3.2,0l-6.8,6.7c-1.3-.9-2.6-1.7-4-2.3l2.5-9.2c.3-1.2-.4-2.5-1.6-2.8l-4.8-1.3c-1.2-.3-2.4.4-2.8,1.6l-2.5,9.2c-1.5-.1-3.1-.1-4.6,0l-2.4-9.2c-.3-1.2-1.6-1.9-2.8-1.6l-4.8,1.3c-1.2.3-1.9,1.6-1.6,2.8l2.4,9.2c-1.4.7-2.8,1.4-4,2.3l-6.7-6.8c-.9-.9-2.3-.9-3.2,0l-3.5,3.5c-.9.9-.9,2.3,0,3.2l6.7,6.8c-.9,1.3-1.7,2.6-2.3,4l-9.2-2.5c-1.2-.3-2.5.4-2.8,1.6l-1.3,4.8c-.3,1.2.4,2.5,1.6,2.8l9.2,2.5c-.1,1.5-.1,3.1,0,4.6l-9.2,2.4c-1.2.3-1.9,1.6-1.6,2.8l1.3,4.8c.3,1.2,1.6,1.9,2.8,1.6l9.2-2.4c.7,1.4,1.4,2.8,2.3,4l-6.8,6.7c-.9.9-.9,2.3,0,3.2l3.5,3.5c.9.9,2.3.9,3.2,0l6.8-6.7c1.3.9,2.6,1.7,4,2.3l-2.5,9.2c-.3,1.2.4,2.5,1.6,2.8l4.8,1.3c1.2.3,2.4-.4,2.8-1.6l2.5-9.2c1.5.1,3.1.1,4.6,0l2.4,9.2c.3,1.2,1.6,1.9,2.8,1.6l4.8-1.3c1.2-.3,1.9-1.6,1.6-2.8l-2.4-9.2c1.4-.7,2.8-1.4,4-2.3l6.7,6.8c.9.9,2.3.9,3.2,0l3.6-3.5c.9-.9.9-2.3,0-3.2l-6.7-6.8c.9-1.3,1.7-2.6,2.3-4l9.2,2.5c1.2.3,2.4-.4,2.8-1.6l1.3-4.8c.3-1.2-.4-2.5-1.6-2.8l-9.2-2.5c.1-1.5.1-3.1,0-4.6l9.2-2.4c1.2-.3,1.9-1.6,1.6-2.8l-1.3-4.8c-.3-1.2-1.6-1.9-2.8-1.6h0ZM84.8,313.3c9.3-2.4,18.8,3.1,21.2,12.4s-3.1,18.8-12.4,21.2-18.8-3.1-21.2-12.4c-2.4-9.3,3.1-18.8,12.4-21.2Z"/>
  <g>
    <path class="st1" d="M79.8,512.4l-9.5-28.4h8.7l3.3,11c.7,2.4,1.4,4.8,2,7.3s1.2,5,1.7,7.5h-1.7c.5-2.5,1.1-5,1.6-7.5s1.2-4.9,1.9-7.3l3.1-11h8.6l-9.2,28.4h-10.5Z"/>
    <path class="st1" d="M102.3,512.4v-21.3h7.7v21.3h-7.7ZM106.1,488.9c-1,0-1.9-.3-2.7-1-.7-.7-1.1-1.5-1.1-2.5s.4-1.8,1.1-2.5c.7-.7,1.6-1,2.7-1s1.9.3,2.7,1c.7.7,1.1,1.5,1.1,2.5s-.4,1.8-1.1,2.5c-.7.7-1.6,1-2.7,1Z"/>
    <path class="st1" d="M121.5,484v28.3h-7.7v-28.4h7.7Z"/>
    <path class="st1" d="M133,500.4v11.9h-7.7v-21.3h7.2v5.4c.1,0,0,0,0,0,.5-1.6,1.3-3,2.4-4.1s2.6-1.6,4.6-1.6,2.8.3,3.9,1c1.1.7,2,1.6,2.6,2.8.6,1.2.9,2.6.9,4.1v13.5h-7.6v-12c0-1-.3-1.9-.8-2.5s-1.3-.9-2.2-.9-1.2.1-1.6.4c-.5.3-.8.7-1.1,1.2s-.4,1.1-.4,1.8h0Z"/>
    <path class="st1" d="M150.7,512.4v-21.3h7.6v21.3h-7.6ZM154.5,488.9c-1,0-1.9-.3-2.7-1-.7-.7-1.1-1.5-1.1-2.5s.4-1.8,1.1-2.5c.7-.7,1.6-1,2.7-1s1.9.3,2.7,1c.7.7,1.1,1.5,1.1,2.5s-.4,1.8-1.1,2.5c-.7.7-1.6,1-2.7,1Z"/>
    <path class="st1" d="M169.6,512.6c-1.5,0-2.8-.3-3.9-1-1.1-.7-2-1.6-2.6-2.8s-.9-2.6-.9-4.1v-13.5h7.6v12c0,1,.3,1.9.8,2.5s1.3.9,2.2.9,1.2-.1,1.6-.4.8-.7,1.1-1.2.4-1.1.4-1.8v-12h7.6v21.3h-7.2v-5.4c-.1,0,0,0,0,0-.5,1.6-1.3,3-2.4,4.1-1.1,1.1-2.6,1.7-4.6,1.7h0Z"/>
    <path class="st1" d="M197,512.7c-1.9,0-3.6-.3-5.1-.8s-2.7-1.3-3.6-2.3-1.5-2.2-1.7-3.6l7.1-1c.2.8.7,1.5,1.2,1.9.6.5,1.4.7,2.5.7s1.3-.1,1.8-.3.6-.6.6-1-.2-.7-.6-1-1-.4-1.9-.6l-3.8-.7c-2.2-.4-3.8-1.1-4.9-2.2s-1.6-2.4-1.6-4.1.4-2.7,1.2-3.8c.8-1,1.9-1.8,3.4-2.4s3.2-.8,5.2-.8,3.5.2,4.9.7c1.4.5,2.5,1.2,3.4,2.1s1.4,2,1.6,3.3l-6.7,1c-.2-.7-.5-1.2-1.1-1.5-.6-.3-1.2-.5-2-.5s-1.2.1-1.7.4c-.5.2-.7.6-.7,1s.1.6.4.9c.3.3.8.5,1.6.6l4.3.8c2.2.4,3.8,1,4.9,2s1.6,2.2,1.6,3.8-.4,2.8-1.4,4c-.9,1.1-2.1,2-3.7,2.6s-3.4.9-5.4.9h0Z"/>
    <path class="st1" d="M224.4,498.2v5.8h-13.3v-5.8h13.3Z"/>
    <path class="st1" d="M228.8,512.4v-28.4h7.7v22.1h11.5v6.2h-19.2Z"/>
    <path class="st1" d="M251,512.4v-21.3h7.6v21.3h-7.6ZM254.8,488.9c-1,0-1.9-.3-2.7-1-.7-.7-1.1-1.5-1.1-2.5s.4-1.8,1.1-2.5c.7-.7,1.6-1,2.7-1s1.9.3,2.7,1c.7.7,1.1,1.5,1.1,2.5s-.4,1.8-1.1,2.5c-.7.7-1.6,1-2.7,1Z"/>
    <path class="st1" d="M275,491.1v5.6h-14v-5.6h14ZM263.6,486h7.6v19.5c0,.4.1.8.3,1s.6.3,1.1.3.6,0,1,0,.7-.1.9-.2l.9,5.5c-.9.2-1.7.4-2.5.5-.8,0-1.5.1-2.2.1-2.4,0-4.2-.5-5.4-1.6-1.2-1.1-1.8-2.7-1.8-4.8v-20.2h0Z"/>
    <path class="st1" d="M285.9,500.4v11.9h-7.6v-28.4h7.5v12.5h-.4c.5-1.6,1.3-3,2.4-4.1,1.1-1.1,2.6-1.6,4.6-1.6s2.8.3,3.9,1,2,1.6,2.6,2.8c.6,1.2.9,2.6.9,4.1v13.6h-7.6v-12c0-1-.3-1.9-.8-2.5s-1.3-.9-2.2-.9-1.2.1-1.6.4c-.5.3-.8.7-1.1,1.2s-.4,1.1-.4,1.8h0Z"/>
    <path class="st1" d="M311,512.6c-1.5,0-2.8-.3-3.9-1-1.1-.7-2-1.6-2.6-2.8s-.9-2.6-.9-4.1v-13.5h7.6v12c0,1,.3,1.9.8,2.5s1.3.9,2.2.9,1.2-.1,1.6-.4c.5-.3.8-.7,1.1-1.2.2-.5.4-1.1.4-1.8v-12h7.6v21.3h-7.2v-5.4c-.1,0,0,0,0,0-.5,1.6-1.3,3-2.4,4.1-1.1,1.1-2.6,1.7-4.6,1.7h0Z"/>
    <path class="st1" d="M334.8,512.7c-1.4,0-2.6-.2-3.6-.7s-1.9-1.1-2.4-2c-.6-.9-.9-2.1-.9-3.5s.2-2.2.6-3c.4-.8,1-1.5,1.7-2s1.5-.9,2.5-1.2c1-.3,2-.5,3.1-.5,1.2,0,2.1-.2,2.9-.3.7-.1,1.2-.3,1.6-.6s.5-.6.5-1h0c0-.4-.1-.8-.3-1-.2-.2-.5-.5-.8-.6-.4-.1-.8-.2-1.3-.2s-.9,0-1.3.2c-.4.1-.7.4-1,.6s-.4.6-.5,1.1l-6.9-.7c.2-1.2.7-2.3,1.5-3.2.8-1,1.9-1.8,3.3-2.3s3.1-.9,5.1-.9,2.9.2,4.1.5c1.2.4,2.3.9,3.1,1.5.9.6,1.5,1.4,2,2.2.5.8.7,1.8.7,2.7v14.6h-7.1v-3h-.1c-.4.8-1,1.4-1.5,1.9s-1.3.8-2,1.1c-.8.2-1.6.3-2.5.3h0ZM337.3,507.9c.6,0,1.1-.1,1.6-.4.5-.2.9-.6,1.3-1,.3-.5.5-1,.5-1.6v-1.8c-.2,0-.4.1-.6.2s-.5.1-.7.2-.5.1-.8.2-.6.1-.9.1c-.6,0-1.1.2-1.5.5-.4.2-.6.5-.8.8s-.3.6-.3,1,0,.7.3,1,.5.5.8.6c.3.1.7.2,1.1.2h0Z"/>
    <path class="st1" d="M359.8,500.4v11.9h-7.6v-21.3h7.2v5.4c.1,0,0,0,0,0,.5-1.6,1.3-3,2.4-4.1,1.1-1.1,2.6-1.6,4.6-1.6s2.8.3,3.9,1,2,1.6,2.6,2.8c.6,1.2.9,2.6.9,4.1v13.5h-7.6v-12c0-1-.3-1.9-.8-2.5s-1.3-.9-2.2-.9-1.2.1-1.6.4-.8.7-1.1,1.2-.4,1.1-.4,1.8h0Z"/>
    <path class="st1" d="M377.4,512.4v-21.3h7.6v21.3h-7.6ZM381.2,488.9c-1,0-1.9-.3-2.7-1-.7-.7-1.1-1.5-1.1-2.5s.4-1.8,1.1-2.5c.7-.7,1.6-1,2.7-1s1.9.3,2.7,1c.7.7,1.1,1.5,1.1,2.5s-.4,1.8-1.1,2.5c-.7.7-1.6,1-2.7,1Z"/>
    <path class="st1" d="M394.9,512.7c-1.4,0-2.6-.2-3.6-.7s-1.9-1.1-2.4-2c-.6-.9-.9-2.1-.9-3.5s.2-2.2.6-3c.4-.8,1-1.5,1.7-2s1.5-.9,2.5-1.2c1-.3,2-.5,3.1-.5,1.2,0,2.1-.2,2.9-.3.7-.1,1.2-.3,1.6-.6s.5-.6.5-1h0c0-.4-.1-.8-.3-1-.2-.2-.5-.5-.8-.6-.4-.1-.8-.2-1.3-.2s-.9,0-1.3.2c-.4.1-.7.4-1,.6s-.4.6-.5,1.1l-6.9-.7c.2-1.2.7-2.3,1.5-3.2.8-1,1.9-1.8,3.3-2.3s3.1-.9,5.1-.9,2.9.2,4.1.5c1.2.4,2.3.9,3.1,1.5.9.6,1.5,1.4,2,2.2.5.8.7,1.8.7,2.7v14.6h-7.1v-3h-.1c-.4.8-1,1.4-1.5,1.9s-1.3.8-2,1.1c-.8.2-1.6.3-2.5.3h0ZM397.4,507.9c.6,0,1.1-.1,1.6-.4.5-.2.9-.6,1.3-1,.3-.5.5-1,.5-1.6v-1.8c-.2,0-.4.1-.6.2s-.5.1-.7.2-.5.1-.8.2-.6.1-.9.1c-.6,0-1.1.2-1.5.5-.4.2-.6.5-.8.8s-.3.6-.3,1,0,.7.3,1,.5.5.8.6c.3.1.7.2,1.1.2h0Z"/>
    <path class="st1" d="M419.9,512.4v-5.5l10.6-8.8c.7-.6,1.3-1.1,1.8-1.6.5-.5.9-1,1.2-1.6.3-.5.4-1.1.4-1.8s-.2-1.3-.5-1.9-.7-.9-1.3-1.2c-.5-.3-1.2-.4-1.9-.4s-1.3.1-1.9.4c-.5.3-1,.7-1.3,1.2-.3.5-.5,1.2-.5,2h-7.3c0-2,.5-3.7,1.3-5.1.9-1.4,2.2-2.5,3.8-3.3s3.5-1.2,5.8-1.2,4.2.4,5.9,1.1,3,1.7,3.9,3c.9,1.3,1.4,2.9,1.4,4.6s-.2,2.2-.7,3.2-1.3,2.3-2.4,3.6c-1.2,1.3-2.8,2.9-5,4.6l-2.7,2.2v.2h11.1v6.1h-21.8,0Z"/>
    <path class="st1" d="M457.1,512.7c-2.6,0-4.9-.6-6.7-1.7-1.9-1.1-3.3-2.8-4.3-5-1-2.2-1.5-4.8-1.5-7.8s.5-5.7,1.5-7.9c1-2.2,2.4-3.8,4.3-5,1.9-1.1,4.1-1.7,6.7-1.7s4.9.6,6.8,1.7c1.9,1.2,3.3,2.8,4.3,5,1,2.2,1.5,4.8,1.5,7.8s-.5,5.7-1.5,7.8c-1,2.2-2.4,3.8-4.3,5-1.9,1.2-4.1,1.7-6.8,1.7h0ZM457.1,506.5c1,0,1.8-.3,2.5-1s1.2-1.6,1.5-2.8.5-2.8.5-4.5-.2-3.3-.5-4.6c-.4-1.2-.9-2.2-1.5-2.8s-1.5-1-2.5-1-1.8.3-2.5,1c-.7.6-1.2,1.6-1.5,2.8-.4,1.2-.5,2.8-.5,4.6s.2,3.3.5,4.5c.3,1.2.9,2.2,1.5,2.8.7.6,1.5,1,2.5,1h0Z"/>
    <path class="st1" d="M472.8,512.4v-5.5l10.6-8.8c.7-.6,1.3-1.1,1.8-1.6.5-.5.9-1,1.2-1.6.3-.5.4-1.1.4-1.8s-.2-1.3-.5-1.9-.7-.9-1.3-1.2c-.5-.3-1.2-.4-1.9-.4s-1.3.1-1.9.4c-.5.3-1,.7-1.3,1.2-.3.5-.5,1.2-.5,2h-7.3c0-2,.5-3.7,1.3-5.1.9-1.4,2.2-2.5,3.8-3.3s3.5-1.2,5.8-1.2,4.2.4,5.9,1.1,3,1.7,3.9,3c.9,1.3,1.4,2.9,1.4,4.6s-.2,2.2-.7,3.2-1.3,2.3-2.4,3.6c-1.2,1.3-2.8,2.9-5,4.6l-2.7,2.2v.2h11.1v6.1h-21.8,0Z"/>
    <path class="st1" d="M508.6,512.7c-2.2,0-4.1-.4-5.8-1.1s-3-1.8-4-3.2-1.5-2.9-1.5-4.7h7.5c0,.6.2,1.2.5,1.7s.8.9,1.4,1.1c.6.3,1.2.4,1.9.4s1.5-.2,2.1-.5,1-.8,1.4-1.4c.3-.6.5-1.3.5-2.1s-.2-1.6-.5-2.2c-.3-.6-.8-1.1-1.4-1.4s-1.3-.5-2.1-.5-1.6.2-2.2.6-1.2.9-1.5,1.6l-6.8-1.3,1.1-15.6h19.1v6.2h-12.8l-.5,6.2h.1c.4-.9,1.2-1.6,2.3-2.1s2.4-.8,3.8-.8,2.4.2,3.5.7c1.1.4,2,1.1,2.8,1.9.8.8,1.4,1.8,1.8,2.9s.7,2.4.7,3.7c0,2-.5,3.7-1.4,5.2s-2.3,2.7-4,3.6c-1.7.9-3.7,1.3-6,1.3h0Z"/>
  </g>
</svg>