<svg xmlns="http://www.w3.org/2000/svg" id="Camada_1" data-name="Camada 1" viewBox="238.2 237.95 1523.6 1524.1">
  <defs>
    <style>
      .cls-1 {
        stroke-linecap: round;
        stroke-linejoin: round;
      }

      .cls-1, .cls-2 {
        fill: none;
        stroke: #fff;
        stroke-width: 41.22px;
      }

      .cls-2 {
        stroke-miterlimit: 10;
      }
    </style>
  </defs>
  <g id="facebook">
    <path class="cls-2" d="M995.47,258.56h0c411.58,0,745.72,334.15,745.72,745.72v.5c0,406.57-330.09,736.66-736.66,736.66h-9.06c-406.57,0-736.66-330.09-736.66-736.66v-9.56c0-406.57,330.09-736.66,736.66-736.66Z"/>
    <path id="icon" class="cls-1" d="M1196.28,643.01h-107.06c-47.33,0-92.71,18.81-126.17,52.28-33.46,33.47-52.26,78.87-52.26,126.21v107.1h-107.06v142.8h107.06v285.59h142.75v-285.59h107.06l35.69-142.8h-142.75v-107.1c0-9.47,3.76-18.55,10.45-25.24,6.69-6.69,15.77-10.46,25.24-10.46h107.06v-142.79Z"/>
  </g>
</svg>