<svg xmlns="http://www.w3.org/2000/svg" id="Camada_1" data-name="Camada 1" viewBox="238.2 236.75 1523.6 1524.1">
  <defs>
    <style>
      .cls-1 {
        stroke-miterlimit: 10;
      }

      .cls-1, .cls-2, .cls-3 {
        fill: none;
        stroke: #fff;
        stroke-width: 41.22px;
      }

      .cls-3 {
        stroke-linecap: round;
        stroke-linejoin: round;
      }
    </style>
  </defs>
  <g id="instagram">
    <path class="cls-1" d="M995.47,257.36h0c411.58,0,745.72,334.15,745.72,745.72v.5c0,406.57-330.09,736.66-736.66,736.66h-9.06c-406.57,0-736.66-330.09-736.66-736.66v-9.56c0-406.57,330.09-736.66,736.66-736.66Z"/>
    <g id="icon">
      <path class="cls-3" d="M1000,1134.94c36.1,0,70.71-14.34,96.24-39.88,25.52-25.53,39.86-60.16,39.86-96.27s-14.34-70.74-39.86-96.27c-25.52-25.53-60.14-39.88-96.24-39.88s-70.71,14.34-96.24,39.88c-25.52,25.53-39.86,60.16-39.86,96.27s14.34,70.74,39.86,96.27c25.52,25.53,60.14,39.88,96.24,39.88Z"/>
      <path class="cls-2" d="M693.77,1134.94v-272.29c0-45.14,17.92-88.42,49.83-120.34,31.9-31.92,75.18-49.85,120.3-49.85h272.2c45.12,0,88.39,17.93,120.3,49.85,31.9,31.92,49.83,75.2,49.83,120.34v272.29c0,45.14-17.92,88.42-49.83,120.34-31.9,31.92-75.18,49.85-120.3,49.85h-272.2c-45.12,0-88.39-17.93-120.3-49.85-31.9-31.92-49.83-75.2-49.83-120.34Z"/>
      <path class="cls-3" d="M1187.14,811.94l.34-.37"/>
    </g>
  </g>
</svg>