<svg xmlns="http://www.w3.org/2000/svg" id="Camada_1" data-name="Camada 1" viewBox="236.97 236.71 1526.07 1526.58">
  <defs>
    <style>
      .cls-1 {
        fill: #fff;
      }

      .cls-2 {
        fill: none;
        stroke: #fff;
        stroke-miterlimit: 10;
        stroke-width: 41.29px;
      }
    </style>
  </defs>
  <g id="linkedin">
    <path class="cls-2" d="M989.93,257.36h0c415.3,0,752.47,337.17,752.47,752.47v.5c0,404.18-328.14,732.32-732.32,732.32h-20.14c-404.18,0-732.32-328.14-732.32-732.32v-20.64c0-404.18,328.14-732.32,732.32-732.32Z"/>
    <g id="icon">
      <path class="cls-1" d="M800.73,887.17h-150.55c-4.99,0-9.78,1.98-13.31,5.51-3.53,3.53-5.51,8.32-5.51,13.31v451.8c0,4.99,1.98,9.78,5.51,13.31,3.53,3.53,8.32,5.51,13.31,5.51h150.55c4.99,0,9.78-1.98,13.31-5.51,3.53-3.53,5.51-8.32,5.51-13.31v-451.8c0-4.99-1.98-9.78-5.51-13.31-3.53-3.53-8.32-5.51-13.31-5.51ZM781.91,1338.97h-112.91v-414.15h112.91v414.15ZM1195.92,887.17c-40.84,0-80.54,13.48-112.91,38.37v-19.54c0-4.99-1.98-9.78-5.51-13.31-3.53-3.53-8.32-5.51-13.31-5.51h-150.55c-4.99,0-9.78,1.98-13.31,5.51-3.53,3.53-5.51,8.32-5.51,13.31v451.8c0,4.99,1.98,9.78,5.51,13.31,3.53,3.53,8.32,5.51,13.31,5.51h150.55c4.99,0,9.78-1.98,13.31-5.51,3.53-3.53,5.51-8.32,5.51-13.31v-207.08c0-14.98,5.95-29.34,16.53-39.93,10.59-10.59,24.95-16.54,39.92-16.54s29.33,5.95,39.92,16.54c10.59,10.59,16.53,24.96,16.53,39.93v207.08c0,4.99,1.98,9.78,5.51,13.31,3.53,3.53,8.32,5.51,13.31,5.51h150.55c4.99,0,9.78-1.98,13.31-5.51,3.53-3.53,5.51-8.32,5.51-13.31v-282.37c-.06-49.91-19.91-97.76-55.19-133.05-35.28-35.29-83.11-55.14-133-55.2ZM1346.47,1338.97h-112.91v-188.25c0-24.96-9.91-48.9-27.56-66.55-17.65-17.65-41.58-27.57-66.53-27.57s-48.89,9.92-66.53,27.57c-17.65,17.65-27.56,41.59-27.56,66.55v188.25h-112.91v-414.15h112.91v45.29c0,3.9,1.21,7.7,3.46,10.88,2.25,3.18,5.44,5.59,9.11,6.88,3.68,1.29,7.66,1.41,11.41.34,3.75-1.07,7.07-3.28,9.51-6.32,19.33-24.51,45.82-42.37,75.78-51.1,29.96-8.73,61.9-7.89,91.35,2.41,29.46,10.3,54.97,29.53,72.98,55.02,18.01,25.49,27.62,55.97,27.48,87.19v263.55ZM739.31,623.7c-4.42-.31-8.86-.34-13.29-.07-14.08-.96-28.22.99-41.52,5.71-13.3,4.73-25.49,12.14-35.82,21.77-10.32,9.63-18.56,21.28-24.2,34.23-5.64,12.95-8.56,26.91-8.59,41.04-.12,13.97,2.64,27.82,8.09,40.69,5.45,12.87,13.49,24.47,23.62,34.1,10.12,9.63,22.12,17.08,35.24,21.88,13.12,4.8,27.09,6.86,41.03,6.04h1.05c13.48.94,27.02-.78,39.83-5.07,12.82-4.29,24.66-11.06,34.86-19.93,10.2-8.87,18.55-19.66,24.58-31.76,6.03-12.1,9.62-25.26,10.57-38.75.94-13.49-.78-27.03-5.06-39.85-4.29-12.82-11.06-24.67-19.92-34.87-8.86-10.2-19.65-18.56-31.75-24.59-12.09-6.03-25.26-9.62-38.74-10.57ZM737.99,791.54c-4.35.4-8.72.36-13.06-.11h-1.05c-9.06.68-18.16-.53-26.72-3.57-8.56-3.03-16.4-7.82-23.01-14.06-6.61-6.23-11.84-13.78-15.37-22.15-3.53-8.37-5.28-17.39-5.13-26.47.15-9.09,2.19-18.04,6-26.29,3.8-8.25,9.29-15.62,16.1-21.63,6.81-6.01,14.8-10.54,23.46-13.29,8.66-2.75,17.79-3.67,26.82-2.69,17.27-1.59,34.46,3.75,47.79,14.84,13.33,11.09,21.72,27.03,23.3,44.3,1.59,17.27-3.75,34.47-14.84,47.81-11.09,13.34-27.02,21.72-44.29,23.31Z"/>
    </g>
  </g>
</svg>