<svg xmlns="http://www.w3.org/2000/svg" id="Layer_1" data-name="Layer 1" viewBox="83.56 174.78 912.89 318.82">
  <defs>
    <style>
      .cls-1 {
        fill: #fff;
      }

      .cls-2 {
        fill: #c12126;
      }
    </style>
  </defs>
  <g>
    <path class="cls-1" d="M104.17,370.64v-30.44h28.99v-108.23h-28.99v-30.44h88.9v30.44h-28.99v108.23h28.99v30.44h-88.9Z"/>
    <path class="cls-1" d="M308.79,370.64v-47.35l-21.98-21.98h-17.88l-21.98,21.98v47.35h-30.92v-60.15l24.4-24.4-24.4-24.4v-60.15h30.92v47.35l21.98,21.98h17.88l21.98-21.98v-47.35h30.92v60.15l-24.4,24.4,24.4,24.4v60.15h-30.92Z"/>
    <path class="cls-1" d="M399.62,316.04v54.6h-30.92v-169.11h99.29l24.4,24.4v65.71l-24.4,24.4h-68.37ZM461.47,238.73l-6.76-6.76h-55.08v53.63h55.08l6.76-6.76v-40.1Z"/>
    <path class="cls-1" d="M737.15,370.64l-24.4-24.4v-27.54h30.92v14.74l6.76,6.76h48.32l6.77-6.76v-25.37l-6.77-6.76h-61.6l-24.4-24.4v-50.97l24.4-24.4h74.89l24.4,24.4v27.54h-30.92v-14.74l-6.77-6.76h-48.32l-6.76,6.76v25.37l6.76,6.76h61.6l24.4,24.4v50.97l-24.4,24.4h-74.89Z"/>
    <path class="cls-1" d="M861.81,370.64v-169.11h114.03v30.44h-83.11v39.62h58.95v28.99h-58.95v39.62h83.11v30.44h-114.03Z"/>
  </g>
  <g>
    <path class="cls-2" d="M604.35,248.37c.33.31.97.35,1.39.75,2.41,2.23,2.88,7.62,2.03,10.61-.62,2.21-2.73,5.12-2.85,7.39-.09,1.72,1.44,4.34,1.13,6.37l2.7,1.41c.8-.58,1.15-1.4,1.92-2.06,2.63-2.25,6.63-3.62,8.71-6.43,2.34-3.16.45-7.2,1.33-10.86.12-.49-.23-.58.65-.49,1.73,2.43,1.69,3.62,2.01,6.38.21,1.81.87,1.98.03,4.05-1.07,2.65-2.48,3.35-4.24,5.13-.33.33-.39,1.02-.92,1.55-.92.92-6.16,3.99-5.74,5.38.13.43,3.2,2.22,3.74,2.19.74-.04,1.79-1.04,2.6-1.38,1.22-.51,5.94-2.66,6.72-2.83.45-.09,4.9-.14,5.52-.09,1.29.11,8.2,2.76,9.37,3.49,1.24.77,2.51,2.61,2.64,4.1-.34.3-3.73-.81-4.37-1.05-1.43-.53-4.57-2.56-5.73-2.83-2.86-.66-5.39-.98-8.11.31-.38.18-3.69,2.24-3.84,2.41-.33.37-.45.8-.35,1.27.06.29,4.33,3.6,4.61,3.69,1.12.35,2.31,0,3.44.18,1.47.23,8.6,2.77,9.59,3.58,3.53,2.91,5.84,7.5,7.43,11.66.83,2.17-.17,4.32-.52,6.44-.75-1.16-2.43-3.53-2.87-4.7-.27-.7-.14-1.52-.34-1.96-1.56-3.44-3.67-8.65-7.73-9.72-.75-.2-4.18-.78-4.01.38,4.07,5.71,6.19,12.24,2.54,18.74-6.86,12.21-27.89,20.58-37.34,6.2-.49-.75-1.89-4.15-2.59-3.99-2.36,4.28-2.03,8.5.67,12.49,1.76,2.59,4.5,4.69,6.14,7.69.15.27.55.72.09.9-1.68-.44-3.41-.62-4.78-1.81-.73-.63-5.87-7.35-6.1-8.06-.18-.56-1.46-5.16-1.46-5.45,0-1.22.81-2.28.97-3.31.25-1.58.07-2.98.51-4.76.35-1.42,1.69-3.47,1.81-4.47.07-.61-.76-5.86-1.01-6.03-1.29-.29-2.1.75-3.13,1.25-1.7.83-3.64,1.65-4.75,3.48-2.22,3.67-1.2,11.13-2.63,15.32-1.9-.72-2.7-3.57-2.65-5.44.11-4.9,1.38-9.64,4.12-13.67l8.43-6.14c.38-.93.71-4.36-.23-4.67-1.73.05-3.46.82-5.12,1.38-2.3.77-4.7,1.91-7.17,2.38-.61.11-2.49.19-3.09.13-2.13-.21-6.42-3.5-7.46-5.4-.36-.67-.69-1.36-.65-2.15.74.77,1.74.53,2.54.92,1.72.83,2.71,2.45,4.85,3.05s6.25.05,8.18-1.07c2.02-1.16,2.61-2.17,5.47-3.08,1.04-.33,2.35.22,2.64-1.31.6-3.16-1.74-3.1-3.78-4.76-.49-.4-.6-1.13-1.17-1.46-1.16-.69-6.74-.91-8.56-1.31-2.58-.57-7.27-4.15-8.05-6.76-.83-2.76-1.73-6.17-1.48-9.08.05-.66.2-1.28.34-1.92l.65-.2c.46,1.29,1.89,2.45,2.38,3.71,1.09,2.83,1.02,4.66,2.96,7.58,3.01,4.53,6.03,2.49,10.4,3.76,2.37.69,4.01,2.51,6.32,2.72-.34-2.6-.67-5.52-1.84-7.87-.83-1.66-3.49-4.2-2.53-6.2.71-1.48,1.92-.23,3.02-.57,1.85-.57,1.58-1.78,2.66-2.97,2.77-1.35,4.31,4.24,5.6,5.93s3.32,2.96,4.77,4.44c.76.02.43-2.83.5-3.45.16-1.42.42-3.08.82-4.45.97-3.3,2.81-3.81,2.12-8.05-.09-.55-2.49-4.66-2.94-5.2-1.53-1.86-4.24-2.79-4.21-6.02.21-1.35,3.88.87,4.51,1.35,1.38,1.05,1.9,2.55,2.75,3.34Z"/>
    <g>
      <g>
        <path class="cls-1" d="M594.97,195.57c38.89-2.34,74.11,18.57,89.88,54.1,14.23,32.06,7.89,71-15.71,96.78l-.32,1.2,69.01,95.59c12.72,24.24-15.09,40.85-32.36,20.84-19.98-27.18-40.15-54.21-60.2-81.34-1.26-1.71-8.53-12.32-9.4-12.64-2.72.62-5.24,1.84-7.91,2.63-68.66,20.2-132.75-41.91-113.79-111.16,9.87-36.07,43.28-63.74,80.81-66ZM659.76,228.51c-41.96-42.28-114.25-26.65-134.84,29.01-22.32,60.35,30.75,121.3,93.54,108.36,62.88-12.95,86.76-91.56,41.3-137.37ZM663.41,352.53c-.56.08-5.47,4.57-6.52,5.36-4.58,3.47-9.52,6.32-14.43,9.28l7.22,10.19c.35.25.64.1.99,0,1.55-.39,5.35-2.45,6.92-3.31,2.43-1.34,5.14-3.13,7.24-4.94.75-.65,5.91-5.69,6.1-6.1.21-.45.16-.53,0-.96-.35-.88-2.18-3.09-2.86-4.07-.73-1.05-3.03-4.55-3.73-5.16-.36-.31-.4-.37-.9-.29ZM675.19,368.3c-3.83,3.87-7.72,7.79-12.45,10.58-1.17.69-8.32,3.95-8.43,4.42l58.4,79.47c9.56,10.32,27.2.12,21.29-13.39l-58.81-81.07Z"/>
        <path class="cls-1" d="M553.68,238.38c35.02-35.03,95.75-22.04,112.79,24.4,19.38,52.82-29.29,105.07-83.35,89.61-49.68-14.21-66.18-77.27-29.44-114.01ZM647.5,330.23c32.93-34.3,17.49-91.2-28.1-103.98-46.97-13.16-90.7,29.64-77.91,76.93,12.69,46.92,72.2,62.27,106.02,27.04Z"/>
      </g>
      <path class="cls-1" d="M545.42,290.85c-1.2-1.24,0-10.04.41-12.1,2.77-14,12.3-27.15,22.88-36.37,1.35-.64,2.81.36,2.14,1.8-.31.65-4.16,3.78-5.11,4.77-9.71,10.09-16.86,22.66-18.09,36.88-.11,1.24.27,3.6-.06,4.55-.27.79-1.62,1.04-2.17.47Z"/>
      <path class="cls-1" d="M550.77,305.53c.43,0,1.07.52,1.3.89.77,1.2,1.81,4.3,2.64,5.91,1,1.94,6.08,8.15.66,6.58-1.65-2.99-3.76-5.92-5.05-9.1-.46-1.13-1.98-4.28.45-4.28Z"/>
    </g>
  </g>
</svg>